<?xml version="1.0" standalone="no"?>
<svg viewBox="0 0 200 200" xmlns="http://www.w3.org/2000/svg">
  <path fill="#FFD6E8" d="M46.1,-71.5C59.9,-62.9,71.4,-50.4,79.2,-35.5C86.9,-20.7,90.8,-3.6,87.4,11.8C84.1,27.2,73.4,40.8,62,53.3C50.5,65.8,38.3,77.1,24,81.1C9.7,85,-6.6,81.5,-20.2,74.8C-33.8,68.1,-44.8,58.2,-56.2,47.4C-67.6,36.6,-79.4,24.8,-84.6,10.2C-89.9,-4.5,-88.4,-22.1,-78.9,-33.1C-69.3,-44.1,-51.7,-48.5,-37.2,-56.8C-22.6,-65,-11.3,-77.2,2.4,-80.9C16.1,-84.7,32.3,-80,46.1,-71.5Z" transform="translate(100 100)" />
</svg>
