<?xml version="1.0" standalone="no"?>
<svg viewBox="0 0 200 200" xmlns="http://www.w3.org/2000/svg">
  <path fill="#D0E2FF" d="M44.3,-69.2C58.9,-59.6,73.3,-49.8,81.9,-35.9C90.5,-22.1,93.3,-4.1,89.6,12C86,28.2,75.8,42.5,64.4,56C53,69.6,40.5,82.3,25.4,86.8C10.4,91.2,-7.1,87.5,-23.9,82.2C-40.7,76.9,-56.9,70.1,-65.7,58C-74.5,45.9,-75.9,28.5,-75.8,12.5C-75.6,-3.5,-73.8,-18.2,-69.3,-33.2C-64.8,-48.1,-57.7,-63.4,-45.7,-74.2C-33.7,-85.1,-16.8,-91.5,-1,-90C14.9,-88.4,29.7,-78.9,44.3,-69.2Z" transform="translate(100 100)" />
</svg>
